<svg preserveAspectRatio="none" width="100%" height="100%" overflow="visible" style="display: block;" viewBox="0 0 16 16" fill="none" xmlns="http://www.w3.org/2000/svg">
<g id="Calendar-Clock--Streamline-Tabler" clip-path="url(#clip0_791_9181)">
<path id="Vector" d="M6.18182 14.5455H2.90909C2.52332 14.5455 2.15335 14.3922 1.88057 14.1194C1.60779 13.8466 1.45455 13.4767 1.45455 13.0909V4.36364C1.45455 3.97787 1.60779 3.6079 1.88057 3.33512C2.15335 3.06234 2.52332 2.90909 2.90909 2.90909H11.6364C12.0221 2.90909 12.3921 3.06234 12.6649 3.33512C12.9377 3.6079 13.0909 3.97787 13.0909 4.36364V6.54545" stroke="var(--stroke-0, #6A7282)" stroke-width="1.3" stroke-linecap="round" stroke-linejoin="round"/>
<path id="Vector_2" d="M10.1818 1.45455V4.36364" stroke="var(--stroke-0, #6A7282)" stroke-width="1.3" stroke-linecap="round" stroke-linejoin="round"/>
<path id="Vector_3" d="M4.36364 1.45455V4.36364" stroke="var(--stroke-0, #6A7282)" stroke-width="1.3" stroke-linecap="round" stroke-linejoin="round"/>
<path id="Vector_4" d="M1.45455 7.27273H8.72727" stroke="var(--stroke-0, #6A7282)" stroke-width="1.3" stroke-linecap="round" stroke-linejoin="round"/>
<path id="Vector_5" d="M8.72727 12.3636C8.72727 13.1352 9.03377 13.8751 9.57933 14.4207C10.1249 14.9662 10.8648 15.2727 11.6364 15.2727C12.4079 15.2727 13.1478 14.9662 13.6934 14.4207C14.239 13.8751 14.5455 13.1352 14.5455 12.3636C14.5455 11.5921 14.239 10.8522 13.6934 10.3066C13.1478 9.76104 12.4079 9.45455 11.6364 9.45455C10.8648 9.45455 10.1249 9.76104 9.57933 10.3066C9.03377 10.8522 8.72727 11.5921 8.72727 12.3636Z" stroke="var(--stroke-0, #6A7282)" stroke-width="1.3" stroke-linecap="round" stroke-linejoin="round"/>
<path id="Vector_6" d="M11.6364 11.2727V12.3636L12 12.7273" stroke="var(--stroke-0, #6A7282)" stroke-width="1.3" stroke-linecap="round" stroke-linejoin="round"/>
</g>
<defs>
<clipPath id="clip0_791_9181">
<rect width="16" height="16" fill="white"/>
</clipPath>
</defs>
</svg>
