<svg preserveAspectRatio="none" width="100%" height="100%" overflow="visible" style="display: block;" viewBox="0 0 16 16" fill="none" xmlns="http://www.w3.org/2000/svg">
<g id="User-Hexagon--Streamline-Tabler">
<path id="Vector" d="M8 8.66667C8.53043 8.66667 9.03914 8.45595 9.41421 8.08088C9.78929 7.70581 10 7.1971 10 6.66667C10 6.13623 9.78929 5.62753 9.41421 5.25245C9.03914 4.87738 8.53043 4.66667 8 4.66667C7.46957 4.66667 6.96086 4.87738 6.58579 5.25245C6.21071 5.62753 6 6.13623 6 6.66667C6 7.1971 6.21071 7.70581 6.58579 8.08088C6.96086 8.45595 7.46957 8.66667 8 8.66667Z" stroke="var(--stroke-0, #6A7282)" stroke-width="1.3" stroke-linecap="round" stroke-linejoin="round"/>
<path id="Vector_2" d="M4.13411 12.496C4.31024 11.9635 4.6498 11.5 5.1045 11.1716C5.5592 10.8432 6.10588 10.6665 6.66678 10.6667H9.33345C9.89399 10.6665 10.4403 10.8429 10.8949 11.171C11.3494 11.499 11.689 11.9619 11.8654 12.494" stroke="var(--stroke-0, #6A7282)" stroke-width="1.3" stroke-linecap="round" stroke-linejoin="round"/>
<path id="Vector_3" d="M13.25 4.18005C13.7167 4.44539 14.0033 4.94205 14 5.47872V10.3347C14 10.8741 13.7047 11.3714 13.228 11.6334L8.728 14.4801C8.5049 14.6025 8.25451 14.6668 8 14.6668C7.74549 14.6668 7.4951 14.6025 7.272 14.4801L2.772 11.6334C2.53878 11.5059 2.34408 11.3182 2.20827 11.0897C2.07247 10.8612 2.00053 10.6005 2 10.3347V5.47805C2 4.93872 2.29533 4.44205 2.772 4.18005L7.272 1.52672C7.50169 1.40008 7.75971 1.33366 8.022 1.33366C8.28429 1.33366 8.54231 1.40008 8.772 1.52672L13.272 4.18005H13.25Z" stroke="var(--stroke-0, #6A7282)" stroke-width="1.3" stroke-linecap="round" stroke-linejoin="round"/>
</g>
</svg>
