<svg preserveAspectRatio="none" width="100%" height="100%" overflow="visible" style="display: block;" viewBox="0 0 16 16" fill="none" xmlns="http://www.w3.org/2000/svg">
<g id="Alert-Hexagon--Streamline-Tabler">
<path id="Vector" d="M13.25 4.18C13.7167 4.44533 14.0033 4.942 14 5.47867V10.3347C14 10.874 13.7047 11.3713 13.228 11.6333L8.728 14.48C8.5049 14.6025 8.25451 14.6667 8 14.6667C7.74549 14.6667 7.4951 14.6025 7.272 14.48L2.772 11.6333C2.53878 11.5059 2.34408 11.3181 2.20827 11.0897C2.07247 10.8612 2.00053 10.6004 2 10.3347V5.478C2 4.93867 2.29533 4.442 2.772 4.18L7.272 1.52667C7.50169 1.40002 7.75971 1.33361 8.022 1.33361C8.28429 1.33361 8.54231 1.40002 8.772 1.52667L13.272 4.18H13.25Z" stroke="var(--stroke-0, #6A7282)" stroke-width="1.33" stroke-linecap="round" stroke-linejoin="round"/>
<path id="Vector_2" d="M8 5.33333V8" stroke="var(--stroke-0, #6A7282)" stroke-width="1.33" stroke-linecap="round" stroke-linejoin="round"/>
<path id="Vector_3" d="M8 10.6667H8.00667" stroke="var(--stroke-0, #6A7282)" stroke-width="1.33" stroke-linecap="round" stroke-linejoin="round"/>
</g>
</svg>
