<svg preserveAspectRatio="none" width="100%" height="100%" overflow="visible" style="display: block;" viewBox="0 0 16 16" fill="none" xmlns="http://www.w3.org/2000/svg">
<g id="Icon" clip-path="url(#clip0_1050_5610)">
<path id="Vector" d="M9.80001 4.20002C9.67786 4.32464 9.60944 4.49218 9.60944 4.66669C9.60944 4.84119 9.67786 5.00873 9.80001 5.13335L10.8667 6.20002C10.9913 6.32217 11.1588 6.39059 11.3333 6.39059C11.5078 6.39059 11.6754 6.32217 11.8 6.20002L13.8707 4.13002C14.084 3.91535 14.446 3.98335 14.526 4.27535C14.7274 5.00794 14.716 5.78273 14.4932 6.50908C14.2703 7.23543 13.8452 7.88329 13.2676 8.37685C12.69 8.8704 11.9837 9.18925 11.2315 9.29606C10.4793 9.40288 9.7122 9.29326 9.02001 8.98002L3.74667 14.2534C3.48146 14.5185 3.12178 14.6674 2.74677 14.6673C2.37176 14.6673 2.01213 14.5182 1.74701 14.253C1.48188 13.9878 1.33297 13.6281 1.33303 13.2531C1.33309 12.8781 1.48212 12.5185 1.74734 12.2534L7.02067 6.98002C6.70743 6.28783 6.59781 5.52074 6.70463 4.76852C6.81145 4.0163 7.13029 3.31005 7.62385 2.73243C8.1174 2.15481 8.76526 1.72969 9.49161 1.50684C10.218 1.28398 10.9928 1.2726 11.7253 1.47402C12.0173 1.55402 12.0853 1.91535 11.8713 2.13002L9.80001 4.20002Z" stroke="var(--stroke-0, white)" stroke-width="1.33" stroke-linecap="round" stroke-linejoin="round"/>
</g>
<defs>
<clipPath id="clip0_1050_5610">
<rect width="16" height="16" fill="white"/>
</clipPath>
</defs>
</svg>
