<svg preserveAspectRatio="none" width="100%" height="100%" overflow="visible" style="display: block;" viewBox="0 0 16 16" fill="none" xmlns="http://www.w3.org/2000/svg">
<g id="Icon">
<path id="Vector" d="M8 2H3.33333C2.97971 2 2.64057 2.14048 2.39052 2.39052C2.14048 2.64057 2 2.97971 2 3.33333V12.6667C2 13.0203 2.14048 13.3594 2.39052 13.6095C2.64057 13.8595 2.97971 14 3.33333 14H12.6667C13.0203 14 13.3594 13.8595 13.6095 13.6095C13.8595 13.3594 14 13.0203 14 12.6667V8" stroke="var(--stroke-0, #101828)" stroke-width="1.33" stroke-linecap="round" stroke-linejoin="round"/>
<path id="Vector_2" d="M12.25 1.75001C12.5152 1.48479 12.8749 1.3358 13.25 1.3358C13.6251 1.3358 13.9848 1.48479 14.25 1.75001C14.5152 2.01522 14.6642 2.37494 14.6642 2.75001C14.6642 3.12508 14.5152 3.48479 14.25 3.75001L8.24133 9.75934C8.08303 9.91751 7.88747 10.0333 7.67267 10.096L5.75733 10.656C5.69997 10.6727 5.63916 10.6737 5.58127 10.6589C5.52339 10.6441 5.47055 10.614 5.4283 10.5717C5.38605 10.5295 5.35593 10.4766 5.3411 10.4187C5.32627 10.3608 5.32727 10.3 5.344 10.2427L5.904 8.32734C5.96702 8.11271 6.08302 7.91738 6.24133 7.75934L12.25 1.75001Z" stroke="var(--stroke-0, #101828)" stroke-width="1.33" stroke-linecap="round" stroke-linejoin="round"/>
</g>
</svg>
