<svg preserveAspectRatio="none" width="100%" height="100%" overflow="visible" style="display: block;" viewBox="0 0 16 16" fill="none" xmlns="http://www.w3.org/2000/svg">
<g id="Message-Star--Streamline-Tabler">
<path id="Vector" d="M5.33333 6H10.6667" stroke="var(--stroke-0, #6A7282)" stroke-width="1.3" stroke-linecap="round" stroke-linejoin="round"/>
<path id="Vector_2" d="M5.33333 8.66667H8.33333" stroke="var(--stroke-0, #6A7282)" stroke-width="1.3" stroke-linecap="round" stroke-linejoin="round"/>
<path id="Vector_3" d="M6.88333 13.07L5.33333 14V12H4C3.46957 12 2.96086 11.7893 2.58579 11.4142C2.21071 11.0391 2 10.5304 2 10V4.66667C2 4.13623 2.21071 3.62753 2.58579 3.25245C2.96086 2.87738 3.46957 2.66667 4 2.66667H12C12.5304 2.66667 13.0391 2.87738 13.4142 3.25245C13.7893 3.62753 14 4.13623 14 4.66667V7.66667" stroke="var(--stroke-0, #6A7282)" stroke-width="1.3" stroke-linecap="round" stroke-linejoin="round"/>
<path id="Vector_4" d="M11.8667 13.878L10.4187 14.6367C10.3757 14.659 10.3274 14.669 10.279 14.6655C10.2307 14.662 10.1843 14.6451 10.1451 14.6167C10.1058 14.5884 10.0752 14.5497 10.0566 14.5049C10.0381 14.4602 10.0323 14.4112 10.04 14.3633L10.3167 12.756L9.14533 11.618C9.11037 11.5842 9.08562 11.5413 9.07389 11.4941C9.06217 11.4469 9.06396 11.3973 9.07904 11.3511C9.09413 11.3049 9.12191 11.2638 9.15921 11.2326C9.19651 11.2014 9.24183 11.1813 9.29 11.1747L10.9087 10.94L11.6327 9.478C11.6543 9.43446 11.6877 9.39782 11.729 9.37221C11.7704 9.34659 11.818 9.33302 11.8667 9.33302C11.9153 9.33302 11.963 9.34659 12.0043 9.37221C12.0456 9.39782 12.079 9.43446 12.1007 9.478L12.8247 10.94L14.4433 11.1747C14.4914 11.1816 14.5365 11.2018 14.5736 11.233C14.6108 11.2642 14.6384 11.3052 14.6535 11.3514C14.6685 11.3975 14.6704 11.4469 14.6588 11.494C14.6472 11.5411 14.6227 11.5841 14.588 11.618L13.4167 12.756L13.6927 14.3627C13.7009 14.4106 13.6956 14.4599 13.6773 14.5049C13.659 14.5499 13.6284 14.5889 13.5891 14.6175C13.5497 14.646 13.5031 14.6629 13.4546 14.6663C13.4061 14.6697 13.3576 14.6594 13.3147 14.6367L11.8667 13.878Z" stroke="var(--stroke-0, #6A7282)" stroke-width="1.3" stroke-linecap="round" stroke-linejoin="round"/>
</g>
</svg>
