<svg preserveAspectRatio="none" width="100%" height="100%" overflow="visible" style="display: block;" viewBox="0 0 16 16" fill="none" xmlns="http://www.w3.org/2000/svg">
<g id="Icon">
<path id="Vector" d="M6.66667 13.3333C6.66661 13.4572 6.70108 13.5787 6.7662 13.6841C6.83132 13.7895 6.92452 13.8746 7.03534 13.93L8.36867 14.5967C8.47034 14.6475 8.5833 14.6714 8.69683 14.6663C8.81037 14.6612 8.9207 14.6271 9.01736 14.5673C9.11401 14.5075 9.19378 14.424 9.24908 14.3247C9.30439 14.2254 9.33339 14.1137 9.33334 14V9.33333C9.33349 9.00292 9.45631 8.68433 9.678 8.43933L14.4933 3.11333C14.5796 3.01771 14.6364 2.89912 14.6567 2.77192C14.6771 2.64472 14.6601 2.51435 14.6079 2.39658C14.5558 2.27881 14.4706 2.17868 14.3627 2.1083C14.2548 2.03792 14.1288 2.0003 14 2H2C1.87108 2.00005 1.74493 2.03748 1.63684 2.10776C1.52875 2.17804 1.44336 2.27815 1.39101 2.39598C1.33866 2.5138 1.32159 2.64427 1.34189 2.77159C1.36218 2.89892 1.41895 3.01762 1.50534 3.11333L6.322 8.43933C6.54369 8.68433 6.66652 9.00292 6.66667 9.33333V13.3333Z" stroke="var(--stroke-0, #6A7282)" stroke-width="1.33333" stroke-linecap="round" stroke-linejoin="round"/>
</g>
</svg>
