<svg preserveAspectRatio="none" width="100%" height="100%" overflow="visible" style="display: block;" viewBox="0 0 16 16" fill="none" xmlns="http://www.w3.org/2000/svg">
<g id="Sparkles--Streamline-Tabler">
<path id="Vector" d="M10.9091 12.3636C11.2949 12.3636 11.6648 12.5169 11.9376 12.7897C12.2104 13.0624 12.3636 13.4324 12.3636 13.8182C12.3636 13.4324 12.5169 13.0624 12.7897 12.7897C13.0624 12.5169 13.4324 12.3636 13.8182 12.3636C13.4324 12.3636 13.0624 12.2104 12.7897 11.9376C12.5169 11.6648 12.3636 11.2949 12.3636 10.9091C12.3636 11.2949 12.2104 11.6648 11.9376 11.9376C11.6648 12.2104 11.2949 12.3636 10.9091 12.3636ZM10.9091 3.63636C11.2949 3.63636 11.6648 3.78961 11.9376 4.06239C12.2104 4.33517 12.3636 4.70514 12.3636 5.09091C12.3636 4.70514 12.5169 4.33517 12.7897 4.06239C13.0624 3.78961 13.4324 3.63636 13.8182 3.63636C13.4324 3.63636 13.0624 3.48312 12.7897 3.21034C12.5169 2.93756 12.3636 2.56759 12.3636 2.18182C12.3636 2.56759 12.2104 2.93756 11.9376 3.21034C11.6648 3.48312 11.2949 3.63636 10.9091 3.63636ZM5.81818 12.3636C5.81818 11.2063 6.27792 10.0964 7.09626 9.27808C7.9146 8.45974 9.02451 8 10.1818 8C9.02451 8 7.9146 7.54026 7.09626 6.72192C6.27792 5.90358 5.81818 4.79367 5.81818 3.63636C5.81818 4.79367 5.35844 5.90358 4.5401 6.72192C3.72176 7.54026 2.61185 8 1.45455 8C2.61185 8 3.72176 8.45974 4.5401 9.27808C5.35844 10.0964 5.81818 11.2063 5.81818 12.3636Z" stroke="var(--stroke-0, white)" stroke-width="1.33" stroke-linecap="round" stroke-linejoin="round"/>
</g>
</svg>
