<svg preserveAspectRatio="none" width="100%" height="100%" overflow="visible" style="display: block;" viewBox="0 0 12 12" fill="none" xmlns="http://www.w3.org/2000/svg">
<g id="Icon" clip-path="url(#clip0_1050_5620)">
<path id="Vector" d="M1.496 8.171C1.56952 8.35646 1.58589 8.55967 1.543 8.7545L1.0105 10.3995C0.99334 10.4829 0.997777 10.5693 1.02339 10.6506C1.049 10.7318 1.09493 10.8051 1.15683 10.8636C1.21873 10.9221 1.29455 10.9638 1.3771 10.9848C1.45964 11.0058 1.54618 11.0053 1.6285 10.9835L3.335 10.4845C3.51886 10.448 3.70926 10.464 3.8845 10.5305C4.95219 11.0291 6.16168 11.1346 7.29957 10.8284C8.43747 10.5221 9.43063 9.82383 10.1038 8.85668C10.7771 7.88954 11.0871 6.7157 10.9791 5.54227C10.8712 4.36884 10.3523 3.27123 9.51403 2.4431C8.67572 1.61496 7.57185 1.10952 6.39719 1.01595C5.22253 0.922377 4.05257 1.24669 3.09372 1.93167C2.13487 2.61665 1.44876 3.61827 1.15644 4.75982C0.864126 5.90137 0.984383 7.10948 1.496 8.171Z" stroke="var(--stroke-0, #6A7282)" stroke-linecap="round" stroke-linejoin="round"/>
</g>
<defs>
<clipPath id="clip0_1050_5620">
<rect width="12" height="12" fill="white"/>
</clipPath>
</defs>
</svg>
