<svg preserveAspectRatio="none" width="100%" height="100%" overflow="visible" style="display: block;" viewBox="0 0 16 16" fill="none" xmlns="http://www.w3.org/2000/svg">
<g id="Star--Streamline-Tabler-Filled">
<path id="Vector" d="M5.49533 4.89333L1.242 5.51L1.16667 5.52533C1.05263 5.55561 0.948663 5.61561 0.865395 5.6992C0.782126 5.7828 0.722536 5.88699 0.692708 6.00115C0.662881 6.11531 0.663885 6.23534 0.695618 6.34898C0.727352 6.46263 0.788678 6.56581 0.873333 6.648L3.95467 9.64733L3.228 13.884L3.21933 13.9573C3.21235 14.0753 3.23684 14.193 3.2903 14.2983C3.34376 14.4037 3.42426 14.493 3.52356 14.557C3.62286 14.621 3.73739 14.6575 3.85543 14.6627C3.97347 14.6679 4.09078 14.6417 4.19533 14.5867L7.99933 12.5867L11.7947 14.5867L11.8613 14.6173C11.9714 14.6607 12.091 14.674 12.2078 14.6558C12.3247 14.6377 12.4347 14.5888 12.5264 14.5142C12.6181 14.4395 12.6884 14.3418 12.7299 14.2311C12.7714 14.1203 12.7827 14.0006 12.7627 13.884L12.0353 9.64733L15.118 6.64733L15.17 6.59067C15.2443 6.49918 15.293 6.38964 15.3111 6.2732C15.3293 6.15676 15.3163 6.03759 15.2734 5.92782C15.2305 5.81806 15.1593 5.72162 15.067 5.64834C14.9747 5.57506 14.8646 5.52756 14.748 5.51067L10.4947 4.89333L8.59333 1.04C8.53832 0.928356 8.45315 0.834343 8.34746 0.768603C8.24178 0.702863 8.1198 0.66802 7.99533 0.66802C7.87087 0.66802 7.74889 0.702863 7.64321 0.768603C7.53752 0.834343 7.45235 0.928356 7.39733 1.04L5.49533 4.89333Z" fill="var(--fill-0, #F0B100)"/>
</g>
</svg>
