<svg preserveAspectRatio="none" width="100%" height="100%" overflow="visible" style="display: block;" viewBox="0 0 16 16" fill="none" xmlns="http://www.w3.org/2000/svg">
<g id="Moon--Streamline-Tabler">
<path id="Vector" d="M8 2H8.262C7.40556 2.79581 6.85506 3.86656 6.70619 5.02615C6.55732 6.18573 6.8195 7.36082 7.44716 8.34715C8.07481 9.33349 9.02824 10.0687 10.1417 10.425C11.2552 10.7813 12.4584 10.7361 13.542 10.2973C13.1252 11.3003 12.4439 12.1714 11.5708 12.8175C10.6977 13.4637 9.66563 13.8607 8.5846 13.9663C7.50358 14.0718 6.41417 13.882 5.43259 13.4169C4.45101 12.9519 3.61407 12.2291 3.01106 11.3257C2.40804 10.4223 2.06157 9.37219 2.00859 8.28731C1.95561 7.20244 2.19812 6.12353 2.71025 5.16568C3.22237 4.20782 3.98491 3.40695 4.91651 2.84849C5.84811 2.29003 6.91383 1.99493 8 1.99467V2Z" stroke="var(--stroke-0, #101828)" stroke-width="1.33333" stroke-linecap="round" stroke-linejoin="round"/>
</g>
</svg>
