<svg preserveAspectRatio="none" width="100%" height="100%" overflow="visible" style="display: block;" viewBox="0 0 32 32" fill="none" xmlns="http://www.w3.org/2000/svg">
<g id="User-Hexagon--Streamline-Tabler">
<path id="Vector" d="M16 17.3333C17.0609 17.3333 18.0783 16.9119 18.8284 16.1618C19.5786 15.4116 20 14.3942 20 13.3333C20 12.2725 19.5786 11.2551 18.8284 10.5049C18.0783 9.75476 17.0609 9.33333 16 9.33333C14.9391 9.33333 13.9217 9.75476 13.1716 10.5049C12.4214 11.2551 12 12.2725 12 13.3333C12 14.3942 12.4214 15.4116 13.1716 16.1618C13.9217 16.9119 14.9391 17.3333 16 17.3333Z" stroke="var(--stroke-0, #6A7282)" stroke-width="1.33" stroke-linecap="round" stroke-linejoin="round"/>
<path id="Vector_2" d="M8.26823 24.992C8.62048 23.9269 9.2996 23 10.209 22.3432C11.1184 21.6863 12.2118 21.333 13.3336 21.3333H18.6669C19.788 21.333 20.8807 21.6859 21.7897 22.342C22.6988 22.998 23.378 23.9239 23.7309 24.988" stroke="var(--stroke-0, #6A7282)" stroke-width="1.33" stroke-linecap="round" stroke-linejoin="round"/>
<path id="Vector_3" d="M26.5 8.3601C27.4333 8.89077 28.0067 9.8841 28 10.9574V20.6694C28 21.7481 27.4093 22.7428 26.456 23.2668L17.456 28.9601C17.0098 29.2051 16.509 29.3335 16 29.3335C15.491 29.3335 14.9902 29.2051 14.544 28.9601L5.544 23.2668C5.07756 23.0119 4.68816 22.6363 4.41655 22.1794C4.14493 21.7225 4.00107 21.201 4 20.6694V10.9561C4 9.87744 4.59067 8.8841 5.544 8.3601L14.544 3.05344C15.0034 2.80015 15.5194 2.66732 16.044 2.66732C16.5686 2.66732 17.0846 2.80015 17.544 3.05344L26.544 8.3601H26.5Z" stroke="var(--stroke-0, #6A7282)" stroke-width="1.33" stroke-linecap="round" stroke-linejoin="round"/>
</g>
</svg>
