<svg preserveAspectRatio="none" width="100%" height="100%" overflow="visible" style="display: block;" viewBox="0 0 16 16" fill="none" xmlns="http://www.w3.org/2000/svg">
<g id="Rosette-Discount-Check--Streamline-Tabler" clip-path="url(#clip0_1048_5514)">
<path id="Vector" d="M2.90943 4.50907C2.90943 4.08472 3.078 3.67776 3.37806 3.3777C3.67811 3.07764 4.08508 2.90907 4.50943 2.90907H5.2367C5.65917 2.90883 6.0644 2.74151 6.36397 2.44362L6.87306 1.93453C7.02175 1.785 7.19853 1.66634 7.39324 1.58537C7.58794 1.5044 7.79674 1.46271 8.00761 1.46271C8.21848 1.46271 8.42727 1.5044 8.62198 1.58537C8.81668 1.66634 8.99346 1.785 9.14215 1.93453L9.65125 2.44362C9.95088 2.7418 10.3567 2.90907 10.7785 2.90907H11.5058C11.9301 2.90907 12.3371 3.07764 12.6372 3.3777C12.9372 3.67776 13.1058 4.08472 13.1058 4.50907V5.23634C13.1058 5.65816 13.2731 6.06398 13.5712 6.36362L14.0803 6.87271C14.2299 7.0214 14.3485 7.19818 14.4295 7.39288C14.5105 7.58759 14.5521 7.79638 14.5521 8.00725C14.5521 8.21813 14.5105 8.42692 14.4295 8.62162C14.3485 8.81633 14.2299 8.99311 14.0803 9.1418L13.5712 9.65089C13.2734 9.95046 13.106 10.3557 13.1058 10.7782V11.5054C13.1058 11.9298 12.9372 12.3367 12.6372 12.6368C12.3371 12.9369 11.9301 13.1054 11.5058 13.1054H10.7785C10.356 13.1057 9.95082 13.273 9.65125 13.5709L9.14215 14.08C8.99346 14.2295 8.81668 14.3482 8.62198 14.4291C8.42727 14.5101 8.21848 14.5518 8.00761 14.5518C7.79674 14.5518 7.58794 14.5101 7.39324 14.4291C7.19853 14.3482 7.02175 14.2295 6.87306 14.08L6.36397 13.5709C6.0644 13.273 5.65917 13.1057 5.2367 13.1054H4.50943C4.08508 13.1054 3.67811 12.9369 3.37806 12.6368C3.078 12.3367 2.90943 11.9298 2.90943 11.5054V10.7782C2.90918 10.3557 2.74186 9.95046 2.44397 9.65089L1.93488 9.1418C1.78535 8.99311 1.66669 8.81633 1.58572 8.62162C1.50475 8.42692 1.46307 8.21813 1.46307 8.00725C1.46307 7.79638 1.50475 7.58759 1.58572 7.39288C1.66669 7.19818 1.78535 7.0214 1.93488 6.87271L2.44397 6.36362C2.74186 6.06405 2.90918 5.65882 2.90943 5.23634V4.50907Z" stroke="var(--stroke-0, #6A7282)" stroke-width="1.33" stroke-linecap="round" stroke-linejoin="round"/>
<path id="Vector_2" d="M5.81818 8L7.27273 9.45455L10.1818 6.54545" stroke="var(--stroke-0, #6A7282)" stroke-width="1.33" stroke-linecap="round" stroke-linejoin="round"/>
</g>
<defs>
<clipPath id="clip0_1048_5514">
<rect width="16" height="16" fill="white"/>
</clipPath>
</defs>
</svg>
